<svg xmlns="http://www.w3.org/2000/svg" width="73.257" height="56.967" viewBox="0 0 73.257 56.967"><defs><style>.a{fill:#00a2e7;}</style></defs><path class="a" d="M35.642,46.829,12.2,66.14V86.982a2.035,2.035,0,0,0,2.035,2.035l14.251-.037a2.035,2.035,0,0,0,2.025-2.035V74.773a2.035,2.035,0,0,1,2.035-2.035h8.139a2.035,2.035,0,0,1,2.035,2.035V86.936a2.035,2.035,0,0,0,2.035,2.041l14.246.039a2.035,2.035,0,0,0,2.035-2.035V66.126l-23.442-19.3a1.55,1.55,0,0,0-1.946,0ZM72.678,59.954,62.047,51.191V33.576a1.526,1.526,0,0,0-1.526-1.526H53.4a1.526,1.526,0,0,0-1.526,1.526V42.81L40.487,33.443a6.1,6.1,0,0,0-7.757,0L.539,59.954a1.526,1.526,0,0,0-.2,2.149l3.243,3.942a1.526,1.526,0,0,0,2.15.207L35.642,41.615a1.55,1.55,0,0,1,1.946,0L67.5,66.253a1.526,1.526,0,0,0,2.149-.2l3.243-3.942a1.526,1.526,0,0,0-.216-2.153Z" transform="translate(0.015 -32.05)"/></svg>